<svg xmlns="http://www.w3.org/2000/svg" viewBox="0 0 352.45 313.02"><defs><style>.cls-1{fill:#00ffce;}.cls-2{opacity:0.38;}.cls-3{opacity:0.26;}</style></defs><title>Recurso 4</title><g id="Capa_2" data-name="Capa 2"><g id="OBJECTS"><polygon class="cls-1" points="327.94 259.06 302.33 241.68 303.82 239.48 282.45 224.97 287.66 217.29 266.33 202.82 266.48 202.61 288.02 217.23 282.81 224.9 304.18 239.41 302.69 241.61 328.08 258.85 327.94 259.06"/><polygon class="cls-1" points="338.33 243.75 312.94 226.51 312.28 227.48 294.98 215.74 292.94 218.74 262.19 197.86 262.33 197.65 292.87 218.38 294.91 215.38 312.21 227.12 312.87 226.15 338.48 243.53 338.33 243.75"/><polygon class="cls-1" points="331.5 253.82 308.86 238.45 310.46 236.1 298.22 227.79 294.63 233.08 294.41 232.94 298.15 227.44 310.82 236.04 309.22 238.38 331.64 253.6 331.5 253.82"/><polygon class="cls-1" points="334.92 248.78 318.9 237.9 319.87 236.47 293.09 218.29 293.23 218.07 320.23 236.4 319.26 237.84 335.06 248.56 334.92 248.78"/><polygon class="cls-1" points="334.29 249.7 294.86 222.94 293.12 225.51 285.67 220.45 285.81 220.24 293.05 225.15 294.79 222.58 334.44 249.49 334.29 249.7"/><polygon class="cls-1" points="321.65 268.32 291.8 248.05 293.34 245.77 274.07 232.69 282.91 219.68 261.8 205.35 261.95 205.13 283.27 219.61 274.43 232.63 293.7 245.71 292.16 247.98 321.8 268.1 321.65 268.32"/><polygon class="cls-1" points="325.02 263.36 307.55 251.51 308.72 249.79 277.16 228.37 277.31 228.16 309.08 249.72 307.91 251.44 325.16 263.15 325.02 263.36"/><polygon class="cls-1" points="318.07 273.6 296.92 259.25 295.58 261.23 270.55 244.23 267.77 248.32 261.39 244 262.78 241.95 233.85 222.31 234 222.1 263.14 241.88 261.75 243.93 267.7 247.96 270.48 243.87 295.51 260.87 296.85 258.89 318.21 273.39 318.07 273.6"/><polygon class="cls-1" points="319.93 270.86 260.34 230.42 255.83 237.07 255.61 236.93 260.27 230.06 320.07 270.65 319.93 270.86"/><polygon class="cls-1" points="320.69 269.75 283.97 244.82 284.45 244.12 264.27 230.42 275.21 214.3 275.43 214.44 264.63 230.35 284.81 244.05 284.33 244.75 320.83 269.53 320.69 269.75"/><polygon class="cls-1" points="339.69 241.75 319.22 227.86 321.23 224.9 280.71 197.39 276.69 203.32 256.72 189.77 256.87 189.56 276.62 202.96 280.64 197.03 321.59 224.83 319.58 227.79 339.83 241.54 339.69 241.75"/><polygon class="cls-1" points="346.82 231.24 321.21 213.86 321.96 212.76 289.89 191 285.94 196.83 248.41 171.35 248.55 171.13 285.87 196.47 289.82 190.64 322.32 212.69 321.57 213.79 346.97 231.03 346.82 231.24"/><polygon class="cls-1" points="343.61 235.97 318 218.59 319.34 216.62 296.84 201.35 293.66 206.03 293.45 205.88 296.77 200.99 319.7 216.55 318.36 218.52 343.75 235.76 343.61 235.97"/><g class="cls-2"><polygon class="cls-1" points="310.09 285.35 284.48 267.97 285.59 266.34 264.43 251.97 260.65 257.55 218.11 228.67 218.26 228.46 260.58 257.19 264.36 251.61 285.95 266.27 284.84 267.9 310.24 285.14 310.09 285.35"/></g><rect class="cls-1" x="256.17" y="202.04" width="0.26" height="29.02" transform="translate(-66.82 306.99) rotate(-55.83)"/><polygon class="cls-1" points="303.33 295.32 274.34 275.64 275.6 273.8 262.63 265 254.27 277.32 209.3 246.79 209.45 246.58 254.2 276.96 262.56 264.64 275.96 273.73 274.7 275.57 303.47 295.1 303.33 295.32"/><polygon class="cls-1" points="307.73 288.84 282.12 271.45 283.7 269.12 264.3 255.95 256.32 267.7 193.15 224.82 193.29 224.61 256.25 267.34 264.23 255.59 284.06 269.06 282.48 271.38 307.87 288.62 307.73 288.84"/><polygon class="cls-1" points="352.3 223.17 320.98 201.91 318.28 205.88 300.48 193.8 304.99 187.16 244.28 145.95 244.42 145.73 305.34 187.09 300.83 193.73 318.21 205.53 320.91 201.55 352.44 222.96 352.3 223.17"/><polygon class="cls-1" points="313.95 279.67 291.93 264.72 290.44 266.91 240.53 233.02 243.47 228.68 243.69 228.83 240.88 232.96 290.38 266.55 291.86 264.36 314.09 279.46 313.95 279.67"/><polygon class="cls-1" points="294.05 308.98 256.51 283.49 254.74 286.09 223.88 265.14 227.88 259.25 228.09 259.39 224.24 265.07 254.67 285.73 256.44 283.13 294.2 308.76 294.05 308.98"/><polygon class="cls-1" points="299.91 300.35 271.14 280.83 268.1 285.3 261.78 281.01 269.56 269.54 269.78 269.69 262.14 280.94 268.03 284.94 271.07 280.47 300.05 300.14 299.91 300.35"/><path class="cls-1" d="M244,208.82a.5.5,0,0,1,.56-.82.5.5,0,1,1-.56.82Z"/><path class="cls-1" d="M261.59,205.65a.5.5,0,0,1,.56-.82.5.5,0,1,1-.56.82Z"/><path class="cls-1" d="M266.13,203.12a.48.48,0,0,1-.13-.68.5.5,0,0,1,.69-.14.51.51,0,0,1,.13.69A.49.49,0,0,1,266.13,203.12Z"/><path class="cls-1" d="M262,198.17a.51.51,0,0,1-.13-.69.5.5,0,0,1,.69-.14.49.49,0,0,1,.13.69A.5.5,0,0,1,262,198.17Z"/><path class="cls-1" d="M256.52,190.07a.49.49,0,0,1-.13-.69.5.5,0,1,1,.82.56A.49.49,0,0,1,256.52,190.07Z"/><path class="cls-1" d="M248.2,171.65a.49.49,0,0,1-.13-.69.5.5,0,1,1,.82.56A.49.49,0,0,1,248.2,171.65Z"/><path class="cls-1" d="M267.54,170.31a.51.51,0,0,1-.13-.69.5.5,0,0,1,.69-.13.49.49,0,0,1,.13.69A.5.5,0,0,1,267.54,170.31Z"/><path class="cls-1" d="M244.07,146.25a.49.49,0,0,1-.13-.69.5.5,0,1,1,.82.56A.49.49,0,0,1,244.07,146.25Z"/><path class="cls-1" d="M233.65,222.62a.5.5,0,1,1,.69-.14A.5.5,0,0,1,233.65,222.62Z"/><path class="cls-1" d="M217.9,229a.5.5,0,0,1,.56-.82.5.5,0,1,1-.56.82Z"/><path class="cls-1" d="M192.94,225.12a.49.49,0,0,1-.13-.69.51.51,0,0,1,.69-.13.5.5,0,0,1,.13.69A.49.49,0,0,1,192.94,225.12Z"/><path class="cls-1" d="M209.1,247.1a.5.5,0,0,1-.14-.69.49.49,0,0,1,.69-.13.5.5,0,0,1,.14.69A.51.51,0,0,1,209.1,247.1Z"/><path class="cls-1" d="M180.41,239.63a.51.51,0,0,1-.13-.69.5.5,0,0,1,.82.56A.51.51,0,0,1,180.41,239.63Z"/><g class="cls-3"><path class="cls-1" d="M200.26,265.65a.48.48,0,0,1-.13-.68.49.49,0,1,1,.82.55A.49.49,0,0,1,200.26,265.65Z"/></g><path class="cls-1" d="M231.75,244.47a.49.49,0,0,1-.14-.68.5.5,0,1,1,.83.55A.49.49,0,0,1,231.75,244.47Z"/><path class="cls-1" d="M252.78,207.88a.49.49,0,0,1-.13-.69.5.5,0,1,1,.82.56A.49.49,0,0,1,252.78,207.88Z"/><polygon class="cls-1" points="305.91 291.51 274.35 270.1 275.28 268.73 261.68 259.5 261.82 259.28 275.64 268.66 274.71 270.03 306.05 291.3 305.91 291.51"/><rect class="cls-1" x="245.76" y="236.99" width="0.26" height="32.97" transform="translate(-101.93 314.57) rotate(-55.83)"/><rect class="cls-1" x="262.15" y="202.58" width="0.26" height="22.3" transform="translate(-61.86 310.7) rotate(-55.83)"/><g class="cls-2"><polygon class="cls-1" points="291.31 313.02 265.91 295.79 265.25 296.77 180.62 239.32 180.76 239.11 265.18 296.41 265.85 295.43 291.45 312.81 291.31 313.02"/></g><rect class="cls-1" x="284.48" y="161.01" width="0.26" height="40.57" transform="translate(-25.24 314.95) rotate(-55.83)"/><g class="cls-3"><polygon class="cls-1" points="251.77 300.18 200.86 265.62 201 265.4 251.7 299.81 257.46 291.33 257.68 291.47 251.77 300.18"/></g><polygon class="cls-1" points="24.92 54.89 50.97 72.57 49.45 74.8 71.19 89.56 65.89 97.36 87.58 112.08 87.43 112.3 65.53 97.43 70.83 89.63 49.09 74.87 50.6 72.64 24.78 55.1 24.92 54.89"/><polygon class="cls-1" points="14.35 70.46 40.18 87.99 40.85 87 58.45 98.95 60.52 95.9 91.8 117.13 91.65 117.35 60.59 96.26 58.52 99.31 40.92 87.37 40.25 88.36 14.2 70.68 14.35 70.46"/><polygon class="cls-1" points="21.3 60.22 44.33 75.84 42.7 78.23 55.16 86.68 58.8 81.31 59.02 81.45 55.23 87.05 42.34 78.3 43.96 75.92 21.16 60.44 21.3 60.22"/><polygon class="cls-1" points="17.82 65.34 34.12 76.4 33.13 77.86 60.37 96.35 60.22 96.57 32.76 77.93 33.75 76.47 17.68 65.56 17.82 65.34"/><polygon class="cls-1" points="18.46 64.4 58.57 91.63 60.34 89.01 67.92 94.15 67.77 94.37 60.41 89.38 58.64 91.99 18.32 64.62 18.46 64.4"/><polygon class="cls-1" points="31.32 45.47 61.68 66.08 60.11 68.4 79.71 81.7 70.72 94.94 92.19 109.51 92.04 109.73 70.36 95.01 79.34 81.77 59.75 68.47 61.32 66.15 31.17 45.69 31.32 45.47"/><polygon class="cls-1" points="27.89 50.51 45.66 62.57 44.48 64.31 76.57 86.09 76.42 86.31 44.11 64.38 45.29 62.64 27.75 50.73 27.89 50.51"/><polygon class="cls-1" points="34.97 40.09 56.47 54.69 57.83 52.68 83.3 69.97 86.12 65.81 92.61 70.21 91.19 72.29 120.62 92.26 120.47 92.48 90.83 72.36 92.24 70.28 86.19 66.17 83.37 70.33 57.9 53.05 56.54 55.05 34.82 40.31 34.97 40.09"/><polygon class="cls-1" points="33.07 42.88 93.67 84.02 98.27 77.25 98.48 77.4 93.74 84.38 32.92 43.1 33.07 42.88"/><polygon class="cls-1" points="32.3 44.02 69.64 69.36 69.16 70.08 89.68 84.01 78.55 100.41 78.33 100.26 89.32 84.08 68.79 70.15 69.28 69.44 32.15 44.23 32.3 44.02"/><polygon class="cls-1" points="12.98 72.49 33.79 86.61 31.75 89.63 72.96 117.6 77.05 111.57 97.36 125.36 97.21 125.58 77.12 111.94 73.03 117.97 31.38 89.7 33.43 86.69 12.83 72.7 12.98 72.49"/><polygon class="cls-1" points="5.72 83.17 31.77 100.86 31.01 101.97 63.62 124.11 67.64 118.18 105.82 144.09 105.67 144.31 67.71 118.55 63.69 124.47 30.64 102.04 31.4 100.92 5.57 83.39 5.72 83.17"/><polygon class="cls-1" points="8.99 78.36 35.03 96.04 33.67 98.05 56.56 113.58 59.79 108.82 60 108.97 56.63 113.95 33.31 98.12 34.67 96.11 8.84 78.58 8.99 78.36"/><g class="cls-2"><polygon class="cls-1" points="43.08 28.14 69.12 45.82 68 47.48 89.52 62.09 93.36 56.43 136.63 85.79 136.48 86.01 93.43 56.79 89.59 62.46 67.63 47.55 68.76 45.89 42.93 28.36 43.08 28.14"/></g><rect class="cls-1" x="97.66" y="83.35" width="0.26" height="29.52" transform="translate(-38.31 123.92) rotate(-55.83)"/><polygon class="cls-1" points="49.96 18.01 79.44 38.02 78.16 39.9 91.35 48.85 99.85 36.31 145.59 67.36 145.44 67.58 99.92 36.68 91.42 49.21 77.79 39.97 79.07 38.09 49.81 18.23 49.96 18.01"/><polygon class="cls-1" points="45.48 24.6 71.53 42.28 69.92 44.65 89.65 58.05 97.77 46.09 162.02 89.71 161.87 89.93 97.84 46.46 89.72 58.41 69.55 44.72 71.16 42.35 45.33 24.82 45.48 24.6"/><polygon class="cls-1" points="0.15 91.39 32.01 113.01 34.75 108.97 52.86 121.26 48.27 128.02 110.02 169.93 109.87 170.15 47.91 128.09 52.49 121.33 34.82 109.33 32.08 113.38 0 91.6 0.15 91.39"/><polygon class="cls-1" points="39.15 33.92 61.55 49.12 63.06 46.9 113.83 81.36 110.83 85.78 110.62 85.63 113.46 81.44 63.13 47.27 61.62 49.49 39.01 34.14 39.15 33.92"/><polygon class="cls-1" points="59.39 4.11 97.58 30.03 99.37 27.39 130.76 48.7 126.7 54.7 126.48 54.55 130.4 48.77 99.44 27.76 97.64 30.4 59.24 4.33 59.39 4.11"/><polygon class="cls-1" points="53.43 12.89 82.69 32.75 85.78 28.2 92.21 32.56 84.3 44.22 84.08 44.07 91.85 32.63 85.85 28.56 82.76 33.11 53.29 13.1 53.43 12.89"/><path class="cls-1" d="M110.29,106a.5.5,0,0,1-.57.83.5.5,0,1,1,.57-.83Z"/><path class="cls-1" d="M92.4,109.2a.51.51,0,0,1,.14.7.51.51,0,0,1-.71.14.5.5,0,0,1-.13-.7A.51.51,0,0,1,92.4,109.2Z"/><path class="cls-1" d="M87.79,111.77a.51.51,0,0,1,.13.71.5.5,0,0,1-.83-.57A.51.51,0,0,1,87.79,111.77Z"/><path class="cls-1" d="M92,116.82a.5.5,0,1,1-.7.13A.5.5,0,0,1,92,116.82Z"/><path class="cls-1" d="M97.56,125.05a.49.49,0,0,1,.14.7.5.5,0,0,1-.7.13.51.51,0,0,1-.14-.7A.5.5,0,0,1,97.56,125.05Z"/><path class="cls-1" d="M106,143.78a.51.51,0,0,1,.13.71.5.5,0,0,1-.7.13.51.51,0,0,1-.14-.7A.52.52,0,0,1,106,143.78Z"/><path class="cls-1" d="M86.35,145.15a.5.5,0,1,1-.7.13A.5.5,0,0,1,86.35,145.15Z"/><path class="cls-1" d="M110.22,169.62a.49.49,0,0,1,.14.7.5.5,0,0,1-.7.13.51.51,0,0,1-.14-.7A.5.5,0,0,1,110.22,169.62Z"/><path class="cls-1" d="M120.83,92a.5.5,0,0,1,.13.7.51.51,0,0,1-.7.14.5.5,0,0,1-.13-.7A.51.51,0,0,1,120.83,92Z"/><path class="cls-1" d="M136.84,85.48a.51.51,0,0,1,.13.71.5.5,0,0,1-.83-.57A.51.51,0,0,1,136.84,85.48Z"/><path class="cls-1" d="M162.23,89.4a.5.5,0,0,1,.13.7.5.5,0,1,1-.83-.57A.5.5,0,0,1,162.23,89.4Z"/><path class="cls-1" d="M145.8,67.05a.5.5,0,0,1,.13.7.51.51,0,0,1-.7.14.52.52,0,0,1-.14-.71A.51.51,0,0,1,145.8,67.05Z"/><path class="cls-1" d="M175,74.65a.5.5,0,1,1-.7.13A.5.5,0,0,1,175,74.65Z"/><g class="cls-3"><path class="cls-1" d="M154.78,48.18a.51.51,0,0,1,.14.7.5.5,0,0,1-.7.13.49.49,0,0,1-.14-.7A.5.5,0,0,1,154.78,48.18Z"/></g><path class="cls-1" d="M122.76,69.72a.5.5,0,1,1-.7.13A.5.5,0,0,1,122.76,69.72Z"/><path class="cls-1" d="M101.37,106.94a.5.5,0,1,1-.7.13A.5.5,0,0,1,101.37,106.94Z"/><polygon class="cls-1" points="47.33 21.88 79.42 43.66 78.48 45.05 92.32 54.44 92.17 54.66 78.12 45.12 79.06 43.73 47.18 22.09 47.33 21.88"/><rect class="cls-1" x="108.24" y="43.79" width="0.26" height="33.54" transform="translate(-2.6 116.21) rotate(-55.83)"/><rect class="cls-1" x="91.57" y="89.65" width="0.26" height="22.68" transform="translate(-43.35 120.14) rotate(-55.83)"/><g class="cls-2"><polygon class="cls-1" points="62.18 0 88.01 17.53 88.69 16.53 174.76 74.96 174.61 75.18 88.76 16.9 88.08 17.9 62.03 0.22 62.18 0"/></g><rect class="cls-1" x="68.87" y="113.35" width="0.26" height="41.26" transform="translate(-80.61 115.82) rotate(-55.83)"/><g class="cls-3"><polygon class="cls-1" points="102.39 13.07 154.18 48.22 154.03 48.43 102.47 13.43 96.61 22.07 96.39 21.92 102.39 13.07"/></g></g></g></svg>