<svg xmlns="http://www.w3.org/2000/svg" viewBox="0 0 673.03 314.65"><defs><style>.cls-1{fill:#25E4BB;}</style>
</defs><title>Recurso 1</title><g id="Capa_2" data-name="Capa 2"><g id="OBJECTS">
<path class="cls-1" d="M672.82,45.43H659.74L655.39,41h-8.78l-4.21-4.24-20.63,0a1.55,1.55,0,0,0-3.09.23,1.56,1.56,0,0,0,1.56,1.56,1.55,1.55,0,0,0,1.53-1.37l20.45,0,4.22,4.24h8.78l4.35,4.4h13.25a.21.21,0,0,0,.21-.21A.21.21,0,0,0,672.82,45.43Zm0,181.23a.22.22,0,0,0,.21-.21.21.21,0,0,0-.21-.21H646.45l-2.06,2.07-2.26-2.27-.06-.06H617.25L604.94,238.4H582.08a1.54,1.54,0,0,0-1.53-1.35,1.56,1.56,0,1,0,0,3.11,1.54,1.54,0,0,0,1.53-1.34h23l12.3-12.41H641.9l2.19,2.2-10.8,10.86H608.46a1.57,1.57,0,1,0,0,.41h25l10.92-11L655,239.62l-8.61,8.69-11.67,0a1.56,1.56,0,1,0,0,.42l11.85,0,8.73-8.82,8.35,8.4h-4.21v14.93H648.23L635.91,250.8l-17,0a1.55,1.55,0,0,0-3.09.16,1.55,1.55,0,0,0,3.08.26l16.88,0,12.32,12.44h11.41V266h-13l-8.76,8.82h-8.79l-11.4-11.46-.07-.07H581.69a1.56,1.56,0,1,0,0,.42h35.56l11,11.11h-6.53a1.54,1.54,0,0,0-1.53-1.36,1.56,1.56,0,1,0,1.53,1.77h7l7,7.08h37.06a.21.21,0,0,0,.21-.21.21.21,0,0,0-.21-.21H635.93l-6.62-6.66h8.54l8.77-8.81h13.26v-2.71h12.94a.21.21,0,0,0,.21-.21.21.21,0,0,0-.21-.21H659.88V248.73h4.22l2.42,2.43.06.06h6.23A.21.21,0,0,0,673,251a.21.21,0,0,0-.21-.21h-6.06l-2.06-2.07h8.12a.21.21,0,0,0,.21-.21.21.21,0,0,0-.21-.21h-8.54l-8.38-8.43h16.92a.21.21,0,0,0,.21-.21.2.2,0,0,0-.21-.2H655.48l-10.8-10.86,1.94-2Zm0-98.5H655.19L646.43,137H634.92a1.55,1.55,0,0,0-3.09.2,1.55,1.55,0,0,0,3.09.21l11.69,0,8.76-8.84h17.45a.21.21,0,0,0,.21-.21A.21.21,0,0,0,672.82,128.16Zm0,14.31h-4.45l-17.56,17.64H633.46l-8.74-8.82H608.25a1.57,1.57,0,1,0,0,.42h16.28l8.75,8.82H651l17.55-17.64h4.28a.21.21,0,0,0,.21-.21A.21.21,0,0,0,672.82,142.47Zm0,24.74H659.74l-4.35-4.4h-8.95L633.27,176l-20.51,0a1.54,1.54,0,1,0,0,.42l20.59,0h.09l13.16-13.22h8.61l4.35,4.4h13.25a.21.21,0,0,0,.21-.21h0A.21.21,0,0,0,672.82,167.21Zm0,23.76h-22l-4.39,4.42H634.92a1.54,1.54,0,1,0,0,.42h11.69l4.38-4.42h21.83a.21.21,0,0,0,.21-.21A.21.21,0,0,0,672.82,191Zm0-70.57H646.45l-13.16,13.22H608.46a1.56,1.56,0,1,0,0,.42h25l13.15-13.22h26.2a.21.21,0,0,0,.21-.21A.21.21,0,0,0,672.82,120.4Zm0-6H648.23l-8.71-8.78-17,0a1.54,1.54,0,1,0,0,.42l16.86,0,8.71,8.77h24.76a.21.21,0,0,0,.21-.21A.2.2,0,0,0,672.82,114.37Zm0-12.45H654.55l0-24.6v-.21H635.92L623.6,64.71H600.17a1.56,1.56,0,1,0,0,.42h23.25l12.33,12.4h18.36l0,24.6v.21h18.69a.21.21,0,0,0,.21-.21A.21.21,0,0,0,672.82,101.92Zm0-43.41h-18.6l-6.12,6.19H636V46.08l-29.6,0a1.58,1.58,0,1,0,0,.42l29.19,0V65.13h12.65l6.12-6.19h18.43a.21.21,0,0,0,.21-.21A.21.21,0,0,0,672.82,58.51Zm0-24.81H642.08L629.72,21.27H611.08L598.77,33.71H581.66a1.53,1.53,0,1,0,0,.42h17.27l12.31-12.44h18.3L641.9,34.12h30.92a.21.21,0,0,0,.21-.21A.21.21,0,0,0,672.82,33.7Zm0,105.45h-31v12.06l-8.09-8.52-.06-.07H610.55a1.56,1.56,0,1,0,0,.42h22.91l8.75,9.22V139.57h30.61a.21.21,0,0,0,.21-.21A.21.21,0,0,0,672.82,139.15Zm0-32H651L632.59,88.64l-.06-.06H596.88a1.58,1.58,0,1,0,0,.42h35.48l18.44,18.53.07.07h22a.21.21,0,0,0,.21-.21A.2.2,0,0,0,672.82,107.19Zm0,100.62a.21.21,0,1,0,0-.42h-18.6l-4.41,4.45-7.58-7.66H626.56l-9.1-9.13-.06-.07L588,195a1.57,1.57,0,1,0,0,.42l29.27,0,8.75,8.78h-.48a1.55,1.55,0,0,0-3.09.22,1.55,1.55,0,0,0,3.09.2h.9l9.3,9.34.06.06h12.52l1.55-1.56.88.89v8.92h22.12a.21.21,0,0,0,.21-.21.21.21,0,0,0-.21-.21h-21.7v-8.67l-1-1,4.28-4.33Zm-24.72,5.78H635.92l-8.94-9h15.07l7.47,7.54Zm24.72-27.81H642.08l-6.17-6.22H618.68a1.55,1.55,0,0,0-3.09.2,1.55,1.55,0,0,0,3.09.22h17.06l6.16,6.21h30.92a.2.2,0,0,0,.21-.2A.21.21,0,0,0,672.82,185.78ZM642.09,288.45h30.73a.21.21,0,0,0,.21-.21.21.21,0,0,0-.21-.21H641.91l-12.39,12.48-.06.06v5.08h-.38l-8.75-8.85h-11.7a1.56,1.56,0,1,0,0,.42h11.52l8.76,8.85h.55v6.79h-23a1.58,1.58,0,1,0,0,.42h23.43v-7.21h12.33l8.78-8.84h21.83A.21.21,0,0,0,673,297a.21.21,0,0,0-.21-.21h-22L642,305.65H629.88v-4.91ZM624.36,3.11a1.54,1.54,0,0,0,1.53-1.35h16v8.7l8.88,9h22a.21.21,0,0,0,.21-.21.21.21,0,0,0-.21-.21H651l-8.64-8.7V1.34H625.89a1.55,1.55,0,1,0-1.53,1.77Z"/><path class="cls-1" d="M.21,269.22H13.29l4.35,4.4h8.78l4.21,4.24,20.63,0a1.55,1.55,0,1,0,1.53-1.78,1.55,1.55,0,0,0-1.53,1.37l-20.45,0-4.22-4.24H17.81l-4.35-4.4H.21A.21.21,0,0,0,0,269,.2.2,0,0,0,.21,269.22ZM.21,26.4h22L31,17.56H44L52.7,26.4H64.63a1.54,1.54,0,0,0,1.54,1.39A1.56,1.56,0,1,0,64.63,26H52.88l-8.75-8.84H30.82L22,26H.21a.21.21,0,0,0-.21.21A.21.21,0,0,0,.21,26.4ZM.21,88a.21.21,0,0,0-.21.21.21.21,0,0,0,.21.21H26.58l2.07-2.07L30.9,88.6l.06.06H55.79l12.3-12.4H91A1.55,1.55,0,0,0,94,76.05,1.55,1.55,0,0,0,91,75.84h-23l-12.3,12.4H31.13L28.94,86l10.8-10.85H64.57a1.57,1.57,0,1,0,0-.42h-25l-10.92,11L18,75l8.61-8.7,11.68,0a1.54,1.54,0,0,0,1.53,1.34,1.56,1.56,0,1,0-1.53-1.76H26.42l-8.73,8.81-8.35-8.4h4.22V51.41H24.8L37.12,63.85l17,0a1.55,1.55,0,1,0,0-.42l-16.88,0L25,51H13.57V48.71h13l8.76-8.82h8.79L55.55,51.35l.06.06H91.34a1.55,1.55,0,0,0,3.09-.21A1.55,1.55,0,0,0,91.34,51H55.78L44.73,39.89h6.53a1.55,1.55,0,0,0,3.09-.2,1.55,1.55,0,0,0-3.09-.22H44.32l-7-7.07-37.07,0a.21.21,0,0,0-.21.21.21.21,0,0,0,.21.21H37.1l6.63,6.66H35.18l-8.76,8.82H13.15V51H.21A.21.21,0,0,0,0,51.2a.21.21,0,0,0,.21.21H13.15V65.93H8.92L6.5,63.49l-.06-.06H.21a.21.21,0,0,0-.21.21.21.21,0,0,0,.21.21H6.27l2.06,2.08H.21a.21.21,0,0,0-.21.21.2.2,0,0,0,.21.2H8.75l8.39,8.43H.21A.21.21,0,0,0,0,75a.21.21,0,0,0,.21.21H17.55L28.35,86,26.41,88Zm0,98.5H17.84l8.76-8.85,11.51,0a1.55,1.55,0,1,0,0-.42l-11.69,0-8.76,8.85H.21a.21.21,0,0,0-.21.21A.21.21,0,0,0,.21,186.5Zm0-14.32H4.66l17.56-17.64H39.57l8.75,8.82H64.79a1.54,1.54,0,1,0,0-.42H48.49l-8.75-8.81H22L4.49,171.76H.21A.21.21,0,0,0,0,172,.21.21,0,0,0,.21,172.18Zm0-24.73H13.29l4.35,4.4h9l13.17-13.22,20.51,0a1.54,1.54,0,1,0,0-.42l-20.59,0h-.08L26.42,151.43H17.81L13.46,147H.21a.21.21,0,0,0-.21.21H0A.21.21,0,0,0,.21,147.45Zm0-23.77h22l4.38-4.42H38.11a1.58,1.58,0,1,0,0-.41H26.42L22,123.26H.21a.21.21,0,0,0-.21.21A.21.21,0,0,0,.21,123.68Zm0,70.57H26.58L39.74,181H64.57a1.57,1.57,0,1,0,0-.42h-25L26.41,193.83H.21a.21.21,0,0,0-.21.21A.2.2,0,0,0,.21,194.25Zm0,6H24.8l8.71,8.77,17,0a1.55,1.55,0,0,0,3.09-.23,1.56,1.56,0,0,0-1.56-1.56,1.55,1.55,0,0,0-1.53,1.37l-16.87,0L25,199.87H.21a.21.21,0,1,0,0,.42Zm0,12.44H18.48l0,24.6v.21H37.11l12.33,12.4H72.86a1.57,1.57,0,1,0,0-.41H49.61L37.28,237.12H18.92l0-24.6v-.21H.21a.21.21,0,0,0-.21.21A.21.21,0,0,0,.21,212.73Zm0,43.41H18.82l6.12-6.19H37v18.64l29.61,0a1.55,1.55,0,0,0,1.53,1.37,1.56,1.56,0,1,0-1.53-1.78l-29.19,0V249.53H24.76l-6.12,6.18H.21a.21.21,0,0,0-.21.21A.21.21,0,0,0,.21,256.14Zm0-80.64h31V163.44L39.33,172l.07.06H62.49A1.54,1.54,0,0,0,64,173.38a1.56,1.56,0,1,0,0-3.11,1.54,1.54,0,0,0-1.53,1.34H39.58l-8.76-9.22v12.69H.21a.21.21,0,1,0,0,.42Zm0,32H22L40.44,226l.06.06H76.16a1.53,1.53,0,1,0,0-.42H40.67L22.23,207.12l-.06-.06H.21a.21.21,0,0,0,0,.42Zm0-100.63a.21.21,0,0,0-.21.21.21.21,0,0,0,.21.21H18.82l4.4-4.45,7.59,7.66H46.47l9.1,9.14.07.06,29.45,0a1.53,1.53,0,1,0,0-.42l-29.27,0-8.75-8.78h.49a1.54,1.54,0,0,0,1.53,1.34A1.56,1.56,0,1,0,47.54,110h-.89l-9.3-9.33-.06-.06H24.76l-1.54,1.56-.89-.9V92.39H.21A.21.21,0,0,0,0,92.6a.21.21,0,0,0,.21.21h21.7v8.67l1,1-4.28,4.32Zm24.73-5.78H37.11l9,9H31l-7.47-7.54ZM.21,128.88H31l6.16,6.21H54.35a1.54,1.54,0,1,0,0-.42H37.29l-6.16-6.21H.21a.21.21,0,0,0-.21.21A.21.21,0,0,0,.21,128.88ZM92.9,279.16a1.55,1.55,0,0,0-1.53,1.37H74.09L61.78,293H43.48L31.13,280.54H.21a.21.21,0,0,0-.21.21.2.2,0,0,0,.21.2H31l12.35,12.44H62L74.26,281H91.37a1.55,1.55,0,0,0,3.09-.23A1.56,1.56,0,0,0,92.9,279.16ZM48.67,311.54a1.54,1.54,0,0,0-1.53,1.36h-16v-8.7l-8.88-8.95H.21a.21.21,0,0,0-.21.21.21.21,0,0,0,.21.21H22l8.65,8.7v8.95H47.14a1.55,1.55,0,1,0,1.53-1.78Z"/></g></g></svg>