<svg xmlns="http://www.w3.org/2000/svg" xmlns:xlink="http://www.w3.org/1999/xlink" viewBox="0 0 242.73 374.83"><defs><style>.cls-1{isolation:isolate;}.cls-2{opacity:0.14;mix-blend-mode:screen;fill:url(#Degradado_sin_nombre_12);}.cls-3{fill:#1455d7;}.cls-4{fill:#002da4;}.cls-5{fill:#25e4bb;}</style><linearGradient id="Degradado_sin_nombre_12" x1="113.85" y1="348.98" x2="113.85" y2="0.79" gradientTransform="translate(10.59 -0.73) scale(0.94 0.92)" gradientUnits="userSpaceOnUse"><stop offset="0" stop-color="#0275ff"/><stop offset="1" stop-color="#021225"/></linearGradient></defs><title>capa1</title><g class="cls-1"><g id="Capa_2" data-name="Capa 2"><g id="brainstorm"><rect class="cls-2" x="15.38" width="203.97" height="321.94"/><polygon class="cls-3" points="15.38 321.94 0 355.79 242.62 355.79 219.34 321.94 15.38 321.94"/><polygon class="cls-4" points="0 355.79 0.45 363.9 241.7 363.9 242.62 355.79 0 355.79"/><ellipse class="cls-5" cx="117.28" cy="322.75" rx="102.21" ry="10.52"/><ellipse class="cls-4" cx="121.31" cy="364.31" rx="120.62" ry="10.52"/><ellipse class="cls-3" cx="121.42" cy="355.84" rx="121.31" ry="10.52"/><path class="cls-5" d="M44,346.43h-.12a267.43,267.43,0,0,1-37.13-5.18l.21-.9a265.24,265.24,0,0,0,36.86,5.15l15.08-7.1H59c22.62,2.14,64,2.94,64.37,3v.92c-.42,0-41.64-.8-64.33-2.93Z"/><polygon class="cls-5" points="109.13 365.83 108.2 365.83 108.2 359.19 55.31 356.36 42.05 363.69 41.6 362.88 55.09 355.42 55.23 355.43 109.13 358.31 109.13 365.83"/><rect class="cls-5" x="122.89" y="333.42" width="0.93" height="32.61" transform="translate(-7.64 2.79) rotate(-1.26)"/><path class="cls-5" d="M123,352.64h0v-.92c.28,0,29.74,0,57.55-1.81l4.73-7.58.23,0c.28,0,28.79-3.39,43.58-6.49l.19.9c-14.14,3-40.74,6.16-43.45,6.48l-4.75,7.61-.24,0C153.38,352.62,124.23,352.64,123,352.64Z"/><path class="cls-5" d="M214.37,362.9l-.76-.52,5.4-7.87.18,0c.11,0,11.82-2.59,20.24-3.69l.12.92c-7.82,1-18.48,3.3-20,3.63Z"/><rect class="cls-5" x="201.62" y="328.6" width="0.92" height="11.86" transform="translate(-93.94 79.35) rotate(-18.1)"/><rect class="cls-5" x="8.99" y="333.99" width="17.67" height="0.93" transform="translate(-292.89 209.43) rotate(-65.03)"/></g></g></g></svg>