<svg xmlns="http://www.w3.org/2000/svg" xmlns:xlink="http://www.w3.org/1999/xlink" viewBox="0 0 168.98 128.76"><defs><style>.cls-1{isolation:isolate;}.cls-11,.cls-12,.cls-13,.cls-14,.cls-15,.cls-16,.cls-17,.cls-18,.cls-19,.cls-2,.cls-4,.cls-5,.cls-6,.cls-7,.cls-8{mix-blend-mode:color-dodge;}.cls-2{fill:url(#Áåçûìÿííûé_ãðàäèåíò_119);}.cls-3{fill:#fff;}.cls-4{fill:url(#Áåçûìÿííûé_ãðàäèåíò_119-2);}.cls-5{fill:url(#Áåçûìÿííûé_ãðàäèåíò_119-3);}.cls-6{fill:url(#Áåçûìÿííûé_ãðàäèåíò_119-4);}.cls-7{fill:url(#Áåçûìÿííûé_ãðàäèåíò_119-5);}.cls-8{fill:url(#Áåçûìÿííûé_ãðàäèåíò_119-6);}.cls-9{fill:#ff86ff;}.cls-10{fill:#19b7e5;}.cls-11{fill:url(#Áåçûìÿííûé_ãðàäèåíò_119-7);}.cls-12{fill:url(#Áåçûìÿííûé_ãðàäèåíò_119-8);}.cls-13{fill:url(#Áåçûìÿííûé_ãðàäèåíò_119-9);}.cls-14{fill:url(#Áåçûìÿííûé_ãðàäèåíò_119-10);}.cls-15{fill:url(#Áåçûìÿííûé_ãðàäèåíò_119-11);}.cls-16{fill:url(#Áåçûìÿííûé_ãðàäèåíò_119-12);}.cls-17{fill:url(#Áåçûìÿííûé_ãðàäèåíò_119-13);}.cls-18{fill:url(#Áåçûìÿííûé_ãðàäèåíò_119-14);}.cls-19{fill:url(#Áåçûìÿííûé_ãðàäèåíò_119-15);}</style><radialGradient id="Áåçûìÿííûé_ãðàäèåíò_119" cx="331.02" cy="439.32" r="1.09" gradientTransform="translate(534.27 -299.84) rotate(79.58)" gradientUnits="userSpaceOnUse"><stop offset="0" stop-color="#ff6000"/><stop offset="0.15" stop-color="#d45000"/><stop offset="0.46" stop-color="#7a2e00"/><stop offset="0.72" stop-color="#381500"/><stop offset="0.9" stop-color="#100600"/><stop offset="1"/></radialGradient><radialGradient id="Áåçûìÿííûé_ãðàäèåíò_119-2" cx="276.52" cy="516.06" r="0.71" xlink:href="#Áåçûìÿííûé_ãðàäèåíò_119"/><radialGradient id="Áåçûìÿííûé_ãðàäèåíò_119-3" cx="228.51" cy="492.46" r="1.09" xlink:href="#Áåçûìÿííûé_ãðàäèåíò_119"/><radialGradient id="Áåçûìÿííûé_ãðàäèåíò_119-4" cx="240.92" cy="-117.38" r="1.09" gradientTransform="matrix(0.21, -0.98, 0.98, 0.21, 129.52, 282.62)" xlink:href="#Áåçûìÿííûé_ãðàäèåíò_119"/><radialGradient id="Áåçûìÿííûé_ãðàäèåíò_119-5" cx="288.35" cy="518.5" r="1.09" xlink:href="#Áåçûìÿííûé_ãðàäèåíò_119"/><radialGradient id="Áåçûìÿííûé_ãðàäèåíò_119-6" cx="276.52" cy="-134.11" r="0.98" gradientTransform="translate(223.77 281.98) rotate(-95.6)" xlink:href="#Áåçûìÿííûé_ãðàäèåíò_119"/><radialGradient id="Áåçûìÿííûé_ãðàäèåíò_119-7" cx="227.76" cy="-65.45" r="0.63" gradientTransform="translate(223.77 281.98) rotate(-95.6)" xlink:href="#Áåçûìÿííûé_ãðàäèåíò_119"/><radialGradient id="Áåçûìÿííûé_ãðàäèåíò_119-8" cx="184.82" cy="-86.57" r="0.98" gradientTransform="translate(223.77 281.98) rotate(-95.6)" xlink:href="#Áåçûìÿííûé_ãðàäèåíò_119"/><radialGradient id="Áåçûìÿííûé_ãðàäèåíò_119-9" cx="505.24" cy="402.81" r="0.98" gradientTransform="translate(675.88 -265.19) rotate(106.92)" xlink:href="#Áåçûìÿííûé_ãðàäèåíò_119"/><radialGradient id="Áåçûìÿííûé_ãðàäèåíò_119-10" cx="238.35" cy="-63.27" r="0.98" gradientTransform="translate(223.77 281.98) rotate(-95.6)" xlink:href="#Áåçûìÿííûé_ãðàäèåíò_119"/><radialGradient id="Áåçûìÿííûé_ãðàäèåíò_119-11" cx="-5.23" cy="184.08" r="0.98" gradientTransform="matrix(1, -0.1, 0.1, 1, 129.49, -169.27)" xlink:href="#Áåçûìÿííûé_ãðàäèåíò_119"/><radialGradient id="Áåçûìÿííûé_ãðàäèåíò_119-12" cx="-53.99" cy="252.73" r="0.63" gradientTransform="matrix(1, -0.1, 0.1, 1, 129.49, -169.27)" xlink:href="#Áåçûìÿííûé_ãðàäèåíò_119"/><radialGradient id="Áåçûìÿííûé_ãðàäèåíò_119-13" cx="-96.93" cy="231.61" r="0.98" gradientTransform="matrix(1, -0.1, 0.1, 1, 129.49, -169.27)" xlink:href="#Áåçûìÿííûé_ãðàäèåíò_119"/><radialGradient id="Áåçûìÿííûé_ãðàäèåíò_119-14" cx="642.38" cy="1.57" r="0.98" gradientTransform="matrix(-0.96, -0.29, 0.29, -0.96, 674.5, 284.05)" xlink:href="#Áåçûìÿííûé_ãðàäèåíò_119"/><radialGradient id="Áåçûìÿííûé_ãðàäèåíò_119-15" cx="-43.41" cy="254.91" r="0.98" gradientTransform="matrix(1, -0.1, 0.1, 1, 129.49, -169.27)" xlink:href="#Áåçûìÿííûé_ãðàäèåíò_119"/></defs><title>capa3</title><g class="cls-1"><g id="Capa_2" data-name="Capa 2"><g id="brainstorm"><path class="cls-2" d="M162.28,106.27a1.11,1.11,0,0,1-1.28-.88,1.09,1.09,0,0,1,.88-1.27,1.08,1.08,0,0,1,1.27.87A1.09,1.09,0,0,1,162.28,106.27Z"/><path class="cls-3" d="M162.19,105.77a.59.59,0,1,1,.47-.69A.59.59,0,0,1,162.19,105.77Z"/><path class="cls-3" d="M147,128.75a.59.59,0,0,1-.21-1.17.59.59,0,0,1,.21,1.17Z"/><path class="cls-4" d="M76.87,66.16a.71.71,0,0,1-.26-1.39.71.71,0,1,1,.26,1.39Z"/><path class="cls-3" d="M76.81,65.85a.39.39,0,1,1-.14-.76.39.39,0,1,1,.14.76Z"/><path class="cls-3" d="M67,80.73a.39.39,0,1,1,.31-.45A.39.39,0,0,1,67,80.73Z"/><path class="cls-5" d="M91.47,15.06a1.09,1.09,0,1,1,.88-1.27A1.09,1.09,0,0,1,91.47,15.06Z"/><path class="cls-3" d="M91.38,14.57a.59.59,0,1,1-.21-1.17.59.59,0,0,1,.21,1.17Z"/><path class="cls-3" d="M76.18,37.55A.59.59,0,0,1,76,36.38a.59.59,0,1,1,.21,1.17Z"/><path class="cls-6" d="M65.47,21.38a1.08,1.08,0,0,1,.84,1.29,1.09,1.09,0,0,1-1.3.84,1.08,1.08,0,0,1-.84-1.29A1.09,1.09,0,0,1,65.47,21.38Z"/><path class="cls-3" d="M65.36,21.87a.58.58,0,0,1,.46.7.59.59,0,1,1-1.16-.25A.59.59,0,0,1,65.36,21.87Z"/><path class="cls-3" d="M88.2,6.46A.59.59,0,1,1,88,7.62a.59.59,0,0,1-.45-.7A.59.59,0,0,1,88.2,6.46Z"/><path class="cls-7" d="M76.68,78.62a1.09,1.09,0,1,1,.88-1.27A1.09,1.09,0,0,1,76.68,78.62Z"/><path class="cls-3" d="M76.59,78.13A.59.59,0,1,1,76.38,77a.59.59,0,1,1,.21,1.17Z"/><path class="cls-8" d="M63.25,18.9a1,1,0,0,1,.19,1.94,1,1,0,1,1-.19-1.94Z"/><path class="cls-3" d="M63.29,19.34a.53.53,0,0,1,.58.48.53.53,0,1,1-.58-.48Z"/><path class="cls-9" d="M81.25,1.43A1.59,1.59,0,1,1,79.52,0,1.59,1.59,0,0,1,81.25,1.43Z"/><path class="cls-10" d="M169,55.52a1.59,1.59,0,0,1-3.16.31,1.59,1.59,0,1,1,3.16-.31Z"/><path class="cls-10" d="M3.17,33.2a1.58,1.58,0,0,1-1.43,1.73A1.59,1.59,0,1,1,3.17,33.2Z"/><path class="cls-10" d="M39.39,29.63a1.59,1.59,0,1,1-1.74-1.43A1.6,1.6,0,0,1,39.39,29.63Z"/><path class="cls-11" d="M136.36,61.06a.63.63,0,0,1,.12,1.26.62.62,0,0,1-.69-.56A.64.64,0,0,1,136.36,61.06Z"/><path class="cls-3" d="M136.39,61.35a.34.34,0,0,1,.37.31.35.35,0,0,1-.31.38.34.34,0,0,1-.37-.31A.35.35,0,0,1,136.39,61.35Z"/><path class="cls-3" d="M146.28,48.83a.33.33,0,0,1,.37.31.34.34,0,0,1-.3.37.35.35,0,0,1-.38-.31A.34.34,0,0,1,146.28,48.83Z"/><path class="cls-12" d="M119.5,105.52a1,1,0,1,1,.19,1.94,1,1,0,1,1-.19-1.94Z"/><path class="cls-3" d="M119.54,106a.54.54,0,0,1,.58.48.53.53,0,0,1-.48.58.54.54,0,0,1-.58-.48A.54.54,0,0,1,119.54,106Z"/><path class="cls-3" d="M134.81,86.62a.53.53,0,1,1,.11,1.06.53.53,0,0,1-.11-1.06Z"/><path class="cls-13" d="M143.15,101.84a1,1,0,0,1-.65-1.22,1,1,0,0,1,1.22-.65,1,1,0,1,1-.57,1.87Z"/><path class="cls-3" d="M143.28,101.42a.54.54,0,0,1-.35-.67.53.53,0,1,1,1,.31A.53.53,0,0,1,143.28,101.42Z"/><path class="cls-3" d="M121.76,113.43a.53.53,0,0,1-.35-.66.54.54,0,0,1,.66-.36.53.53,0,1,1-.31,1Z"/><path class="cls-14" d="M137.46,50a1,1,0,1,1-.88,1.07A1,1,0,0,1,137.46,50Z"/><path class="cls-3" d="M137.5,50.42a.53.53,0,0,1,.11,1.06A.54.54,0,0,1,137,51,.53.53,0,0,1,137.5,50.42Z"/><path class="cls-15" d="M142.88,14.37a1,1,0,1,1-1.07-.88A1,1,0,0,1,142.88,14.37Z"/><path class="cls-3" d="M142.43,14.41a.53.53,0,1,1-1.06.1.54.54,0,0,1,.48-.58A.54.54,0,0,1,142.43,14.41Z"/><path class="cls-3" d="M161.74,29.72a.53.53,0,1,1-.58-.48A.54.54,0,0,1,161.74,29.72Z"/><path class="cls-16" d="M100.57,87.4a.63.63,0,1,1-1.26.12.63.63,0,0,1,1.26-.12Z"/><path class="cls-3" d="M100.28,87.42a.35.35,0,0,1-.31.38.34.34,0,0,1-.06-.68A.34.34,0,0,1,100.28,87.42Z"/><path class="cls-3" d="M112.79,97.34a.35.35,0,1,1-.69.07.35.35,0,0,1,.69-.07Z"/><path class="cls-17" d="M56.15,70.45a1,1,0,1,1-1.07-.88A1,1,0,0,1,56.15,70.45Z"/><path class="cls-3" d="M55.7,70.5a.53.53,0,0,1-1.05.1.53.53,0,1,1,1.05-.1Z"/><path class="cls-3" d="M75,85.81a.53.53,0,0,1-.48.58.53.53,0,0,1-.1-1.06A.53.53,0,0,1,75,85.81Z"/><path class="cls-18" d="M59.78,94.11A1,1,0,0,1,61,93.46a1,1,0,0,1,.65,1.23,1,1,0,0,1-1.23.64A1,1,0,0,1,59.78,94.11Z"/><path class="cls-3" d="M60.2,94.24a.54.54,0,0,1,.67-.35.53.53,0,0,1-.31,1A.55.55,0,0,1,60.2,94.24Z"/><path class="cls-3" d="M48.23,72.7a.53.53,0,0,1,.66-.35.55.55,0,0,1,.36.67.53.53,0,0,1-1-.32Z"/><path class="cls-19" d="M111.65,88.52a1,1,0,1,1-1.06-.88A1,1,0,0,1,111.65,88.52Z"/><path class="cls-3" d="M111.21,88.56a.53.53,0,1,1-.58-.47A.52.52,0,0,1,111.21,88.56Z"/><path class="cls-3" d="M95.39,29.69a.53.53,0,0,1-.48.58.54.54,0,0,1-.58-.48.54.54,0,0,1,.48-.58A.54.54,0,0,1,95.39,29.69Z"/></g></g></g></svg>